<svg xmlns="http://www.w3.org/2000/svg" viewBox="0 0 48 48"><title>09-Brain process</title><g id="_09-Brain_process" data-name="09-Brain process"><path d="M23,48H15a1,1,0,0,1-.949-.684L12.279,42H7a3,3,0,0,1-3-3V33H1a1,1,0,0,1-.857-1.515L4,25.057V22.446A16.262,16.262,0,0,1,19.926,6,15.9,15.9,0,0,1,29.6,9.2l-1.2,1.6A13.879,13.879,0,0,0,20,8h-.065A14.258,14.258,0,0,0,6,22.446v2.887a1,1,0,0,1-.143.515L2.766,31H5a1,1,0,0,1,1,1v7a1,1,0,0,0,1,1h6a1,1,0,0,1,.949.684L15.721,46H23Z"/><path d="M41.628,48H28.372a1,1,0,0,1-.553-.167A12.987,12.987,0,0,1,31,24.643V13a1,1,0,0,1,1-1h6a1,1,0,0,1,1,1V24.643a12.987,12.987,0,0,1,3.181,23.19A1,1,0,0,1,41.628,48ZM28.681,46H41.319A10.987,10.987,0,0,0,37.75,26.362a1,1,0,0,1-.75-.968V14H33V25.394a1,1,0,0,1-.75.968A10.987,10.987,0,0,0,28.681,46Z"/><rect x="29" y="12" width="12" height="2"/><path d="M40.279,44H29.721a1,1,0,0,1-.661-.25,8.954,8.954,0,0,1-2.843-8.7,1,1,0,0,1,1.238-.75,10.2,10.2,0,0,1,1.984.806A6.8,6.8,0,0,0,33,36a6.766,6.766,0,0,0,3.553-.9A8.737,8.737,0,0,1,41,34a9.778,9.778,0,0,1,1.98.187,1,1,0,0,1,.774.751A8.931,8.931,0,0,1,40.94,43.75,1,1,0,0,1,40.279,44ZM30.113,42h9.774A7,7,0,0,0,42,37a6.639,6.639,0,0,0-.07-.954A8.826,8.826,0,0,0,41,36a6.766,6.766,0,0,0-3.553.9A8.737,8.737,0,0,1,33,38a8.763,8.763,0,0,1-4.452-1.1c-.181-.09-.358-.178-.538-.262C28,36.757,28,36.879,28,37A7,7,0,0,0,30.113,42Z"/><circle cx="41" cy="2" r="2"/><path d="M33,9a4,4,0,1,1,4-4A4,4,0,0,1,33,9Zm0-6a2,2,0,1,0,2,2A2,2,0,0,0,33,3Z"/><rect x="38" y="6" width="2" height="4"/><rect x="23" y="11" width="2" height="2"/><rect x="25" y="13" width="2" height="2"/></g></svg>