<svg xmlns="http://www.w3.org/2000/svg" xmlns:xlink="http://www.w3.org/1999/xlink" viewBox="0,0,256,256" width="48px" height="48px" fill-rule="nonzero"><g fill="#00bec5" fill-rule="nonzero" stroke="none" stroke-width="1" stroke-linecap="butt" stroke-linejoin="miter" stroke-miterlimit="10" stroke-dasharray="" stroke-dashoffset="0" font-family="none" font-weight="none" font-size="none" text-anchor="none" style="mix-blend-mode: normal"><g transform="scale(10.66667,10.66667)"><path d="M16.48438,13.43359c-0.57812,-0.39844 -1.96875,-1.02734 -1.92187,-2.05078c0.02734,-0.54687 0.40234,-0.95703 0.8125,-1.36719c1.22656,-0.95703 2.47656,-1.91406 2.47656,-4.10156c0,-1.32031 -0.5,-2.23828 -1.04297,-2.91406h1.19141l2,-2h-6.67578c-1.50391,0 -3.52344,0.25781 -5.16406,1.625c-1.23047,0.95703 -1.92188,2.47656 -1.92188,3.84375c0,2.32422 1.79297,4.625 5.20703,4.48438h0.94141c-0.14062,0.27344 -0.25781,0.56641 -0.25781,1.11328c0,0.82031 0.40234,1.375 0.8125,1.92188c-1.36719,0.13672 -3.81641,0.27344 -5.59375,1.36719c-1.77734,1.09375 -2.34766,2.45313 -2.34766,3.54688c0,2.05078 2.03906,4.10156 6.27344,4.10156c4.91797,0 7.6875,-2.73437 7.6875,-5.46875c0,-2.05078 -1.12109,-3.16797 -2.47656,-4.10156zM12.35938,8.91797c-1.75,0 -2.47656,-2.19922 -2.47656,-3.48828c0,-1.53906 0.97656,-2.13281 1.84375,-2.13281c1.66016,0 2.47656,2.21484 2.47656,3.6875c0,1.65625 -1.17187,1.93359 -1.84375,1.93359zM12.71484,20.82031c-2.55859,0 -4.20703,-1.13281 -4.20703,-2.6875c0,-1.55469 1.42578,-2.05859 1.98047,-2.26562c1.00391,-0.30859 3.23438,-0.32422 3.23438,-0.32422c1.77734,1.14063 2.57031,1.77344 2.57031,2.91406c0,1.34766 -1.24609,2.36328 -3.57812,2.36328z"></path></g></g></svg>